<svg width="24.000000" height="24.000000" viewBox="0 0 24 24" fill="none" xmlns="http://www.w3.org/2000/svg" xmlns:xlink="http://www.w3.org/1999/xlink">
	<desc>
			Created with Pixso.
	</desc>
	<defs>
		<clipPath id="clip25_123">
			<rect id="ci:phone" width="24.000000" height="24.000000" fill="white" fill-opacity="0"/>
		</clipPath>
	</defs>
	<rect id="ci:phone" width="24.000000" height="24.000000" fill="#FFFFFF" fill-opacity="0"/>
	<g clip-path="url(#clip25_123)">
		<path id="Vector" d="M18.99 20C10.46 20.01 3.99 13.46 4 5C4 4.44 4.44 4 5 4L7.63 4C8.13 4 8.55 4.36 8.62 4.85C8.8 6.02 9.14 7.17 9.64 8.25L9.74 8.47C9.81 8.62 9.83 8.79 9.78 8.95C9.74 9.1 9.65 9.24 9.51 9.34C8.69 9.92 8.38 11.1 9.02 12.02C9.82 13.17 10.82 14.17 11.98 14.97C12.89 15.61 14.07 15.3 14.65 14.48C14.75 14.34 14.89 14.25 15.04 14.21C15.2 14.16 15.37 14.18 15.52 14.25L15.74 14.35C16.82 14.85 17.97 15.19 19.14 15.37C19.63 15.44 20 15.86 20 16.36L20 19C20 19.13 19.97 19.26 19.92 19.38C19.87 19.5 19.79 19.61 19.7 19.7C19.61 19.8 19.5 19.87 19.38 19.92C19.26 19.97 19.13 20 18.99 20L18.99 20Z" fill="#FFFFFF" fill-opacity="1.000000" fill-rule="nonzero"/>
	</g>
</svg>
