<svg width="19.000000" height="15.000000" viewBox="0 0 19 15" fill="none" xmlns="http://www.w3.org/2000/svg" xmlns:xlink="http://www.w3.org/1999/xlink">
	<desc>
			Created with Pixso.
	</desc>
	<defs/>
	<path id="Vector" d="M-0.43 3.67L8.7 8.42C8.79 8.47 8.89 8.49 8.99 8.49C9.1 8.49 9.2 8.47 9.29 8.42L18.42 3.67L18.42 11.92C18.42 12.64 18.15 13.32 17.66 13.84C17.17 14.35 16.51 14.66 15.8 14.71L15.64 14.71L2.35 14.71C1.64 14.71 0.96 14.44 0.44 13.95C-0.08 13.46 -0.39 12.79 -0.43 12.08L-0.43 11.92L-0.43 3.67ZM2.35 -0.72L15.64 -0.72C16.35 -0.72 17.03 -0.45 17.55 0.04C18.07 0.53 18.38 1.2 18.42 1.91L18.42 2.07L18.42 2.22L8.99 7.13L-0.43 2.22L-0.43 2.07C-0.43 1.35 -0.16 0.67 0.33 0.15C0.82 -0.36 1.48 -0.67 2.19 -0.71L2.35 -0.72L15.64 -0.72L2.35 -0.72Z" fill="#FFFFFF" fill-opacity="1.000000" fill-rule="nonzero"/>
</svg>
