<svg width="24.000000" height="24.000000" viewBox="0 0 24 24" fill="none" xmlns="http://www.w3.org/2000/svg" xmlns:xlink="http://www.w3.org/1999/xlink">
	<desc>
			Created with Pixso.
	</desc>
	<defs>
		<clipPath id="clip25_127">
			<rect id="fluent:mail-28-filled" width="24.000000" height="24.000000" fill="white" fill-opacity="0"/>
		</clipPath>
	</defs>
	<rect id="fluent:mail-28-filled" width="24.000000" height="24.000000" fill="#FFFFFF" fill-opacity="0"/>
	<g clip-path="url(#clip25_127)">
		<path id="Vector" d="M2.57 8.67L11.7 13.42C11.79 13.47 11.89 13.49 11.99 13.49C12.1 13.49 12.2 13.47 12.29 13.42L21.42 8.67L21.42 16.92C21.42 17.64 21.15 18.32 20.66 18.84C20.17 19.35 19.51 19.66 18.8 19.7L18.64 19.71L5.35 19.71C4.64 19.71 3.96 19.44 3.44 18.95C2.92 18.46 2.61 17.79 2.57 17.08L2.57 16.92L2.57 8.67ZM5.35 4.28L18.64 4.28C19.35 4.28 20.03 4.55 20.55 5.04C21.07 5.53 21.38 6.2 21.42 6.91L21.42 7.07L21.42 7.22L11.99 12.13L2.57 7.22L2.57 7.07C2.57 6.35 2.84 5.67 3.33 5.15C3.82 4.64 4.48 4.33 5.19 4.29L5.35 4.28L18.64 4.28L5.35 4.28Z" fill="#FFFFFF" fill-opacity="1.000000" fill-rule="nonzero"/>
	</g>
</svg>
