<svg width="17.000000" height="21.000000" viewBox="0 0 17 21" fill="none" xmlns="http://www.w3.org/2000/svg" xmlns:xlink="http://www.w3.org/1999/xlink">
	<desc>
			Created with Pixso.
	</desc>
	<defs/>
	<path id="Vector" d="M8 -0.5C5.81 -0.5 3.71 0.37 2.16 1.91C0.62 3.46 -0.25 5.56 -0.25 7.75C-0.26 9.53 0.33 11.27 1.41 12.7C1.41 12.7 1.63 12.99 1.67 13.03L8 20.5L14.32 13.03C14.36 12.99 14.58 12.7 14.58 12.7L14.58 12.69C15.66 11.27 16.25 9.53 16.25 7.75C16.24 5.56 15.37 3.46 13.83 1.91C12.28 0.37 10.18 -0.5 8 -0.5ZM8 10.75C7.4 10.75 6.82 10.57 6.33 10.24C5.83 9.91 5.45 9.44 5.22 8.89C5 8.34 4.94 7.74 5.05 7.16C5.17 6.58 5.45 6.04 5.87 5.62C6.29 5.2 6.83 4.92 7.41 4.8C7.99 4.69 8.59 4.75 9.14 4.97C9.69 5.2 10.16 5.58 10.49 6.08C10.82 6.57 11 7.15 11 7.75C10.99 8.54 10.68 9.3 10.12 9.87C9.55 10.43 8.79 10.74 8 10.75Z" fill="#FFFFFF" fill-opacity="1.000000" fill-rule="nonzero"/>
</svg>
