<svg width="16.000000" height="16.000000" viewBox="0 0 16 16" fill="none" xmlns="http://www.w3.org/2000/svg" xmlns:xlink="http://www.w3.org/1999/xlink">
	<desc>
			Created with Pixso.
	</desc>
	<defs/>
	<path id="Vector" d="M14.99 16C6.46 16.01 -0.01 9.45 0 1C0 0.44 0.44 0 1 0L3.63 0C4.13 0 4.55 0.36 4.62 0.85C4.8 2.02 5.14 3.17 5.64 4.25L5.74 4.47C5.81 4.62 5.83 4.79 5.78 4.95C5.74 5.1 5.65 5.24 5.51 5.34C4.69 5.92 4.38 7.1 5.02 8.02C5.82 9.17 6.82 10.17 7.97 10.97C8.89 11.61 10.07 11.3 10.65 10.48C10.75 10.34 10.89 10.25 11.04 10.21C11.2 10.16 11.37 10.18 11.52 10.25L11.74 10.35C12.82 10.85 13.97 11.19 15.14 11.37C15.63 11.44 16 11.86 16 12.36L16 15C16 15.13 15.97 15.26 15.92 15.38C15.87 15.5 15.79 15.61 15.7 15.7C15.61 15.8 15.5 15.87 15.38 15.92C15.26 15.97 15.13 16 14.99 16L14.99 16Z" fill="#FFFFFF" fill-opacity="1.000000" fill-rule="nonzero"/>
</svg>
